PathFileType	4	(X/Y/Z)	65_2_44_p0_0-292.trc
DataRate	CameraRate	NumFrames	NumMarkers	Units	OrigDataRate	OrigDataStartFrame	OrigNumFrames
51.0	51.0	6	27	m	51.0	0	293
Frame#	Time	RHip			RKnee			RAnkle			RBigToe			RSmallToe			RHeel			LHip			LKnee			LAnkle			LBigToe			LSmallToe			LHeel			Neck			Head			Nose			RShoulder			RElbow			RWrist			RThumb			RIndex			RPinky			LShoulder			LElbow			LWrist			LThumb			LIndex			LPinky			
		X1	Y1	Z1	X2	Y2	Z2	X3	Y3	Z3	X4	Y4	Z4	X5	Y5	Z5	X6	Y6	Z6	X7	Y7	Z7	X8	Y8	Z8	X9	Y9	Z9	X10	Y10	Z10	X11	Y11	Z11	X12	Y12	Z12	X13	Y13	Z13	X14	Y14	Z14	X15	Y15	Z15	X16	Y16	Z16	X17	Y17	Z17	X18	Y18	Z18	X19	Y19	Z19	X20	Y20	Z20	X21	Y21	Z21	X22	Y22	Z22	X23	Y23	Z23	X24	Y24	Z24	X25	Y25	Z25	X26	Y26	Z26	X27	Y27	Z27	
0	0.0	0.38908728128328485	0.667104782226249	0.3614785904332695	0.37274614142345325	0.8739064212658504	0.7358492313440166	0.2949023862207044	1.0425398116201732	1.163567649217011	0.30002834822288327	0.8835425188171436	1.2302823768331637	0.36084351335241494	0.886110929080833	1.2180019377083102	0.26638901186613445	1.1173587809502046	1.211600372509275	0.1691436472324347	0.7006242526289567	0.3379145516847338	0.13796026490844157	0.9045361565382394	0.728533583419372	0.10542170858204207	1.0351413308822393	1.1511443787681903	0.12564698275086703	0.8315851312774947	1.1804728647497893	0.06490826489825431	0.9078379189825682	1.1811821982689619	0.10268038591639002	1.0864164207544247	1.1892940498576827	0.33679255986818724	0.5286121803392482	-0.20366234404801947	0.371949982273783	0.38553291540895507	-0.42866318606102954	0.34222917033552236	0.38107376441103785	-0.2847631356174386	0.492127958756211	0.5400649607108589	-0.10612385419754378	0.5249394900897522	0.5462157692352364	0.17337745626791423	0.4480419044977766	0.5090165387830767	0.42126192110951927	0.3595129949088947	0.5119987063881624	0.511523030073578	0.3649998783757836	0.5130650664618087	0.5300296985374606	0.41577755681947376	0.5939638840343274	0.5332289824397483	0.18311013009167246	0.5362002488482067	-0.15037601442380355	0.1197838225042407	0.5730350794052649	0.11191832224316058	0.13920246696984762	0.47050936771410024	0.36033878137497594	0.1841142896980529	0.47377869516827753	0.4662873015143947	0.15445177580150524	0.4386052422885251	0.48896707447210924	0.11813696062908173	0.4607148903155796	0.47117072458537773
1	0.0196078431372549	0.3935824037873209	0.6679647519166763	0.36175253915787425	0.3665610989127735	0.8980831439068573	0.752484261813784	0.2917378813056461	1.0292027128126813	1.1638706506587013	0.30015174493083974	0.9213591756839208	1.2412166693812563	0.36400230740343603	0.9393127287485211	1.2375765700279346	0.2627785734655483	1.0947176615052787	1.2068703547843345	0.17189155590586339	0.7146501896092563	0.3423897285773085	0.1364146862769222	0.9030380277016984	0.7281597336326486	0.10578141317008928	1.0385671944761832	1.1572331539771943	0.12160106037908289	0.8529068361710923	1.1862545731392844	0.06717057494016032	0.9177806559543118	1.1874018315008485	0.1092763917343851	1.067560726925634	1.1796656041954359	0.3370148891940919	0.5284378806300011	-0.20706570349812445	0.3755342372534009	0.3963330307793245	-0.43113736635696703	0.3423727190164028	0.3807951083417904	-0.28797816270733756	0.4884719210645088	0.5394711451105314	-0.10620936096621232	0.5248788297091628	0.5461641881118359	0.17727648868804446	0.44797181565547245	0.5086684822229574	0.4248922373804984	0.3596714440274341	0.5127462954435191	0.5114715810735374	0.3672484184231371	0.5281113065593376	0.5345522774515731	0.4159376231404431	0.593250469986897	0.5370660828295866	0.18315774309944688	0.5364171527284615	-0.15036469538467417	0.11974473893035437	0.5729967168831781	0.11199114908598845	0.13901858795464783	0.47051825634434286	0.36035968925161505	0.18177883159314412	0.461136747489156	0.46098968701198667	0.15350522153508606	0.45088344296753147	0.4900271612835322	0.11602918409168933	0.48347576079864213	0.4760547902284632
2	0.0392156862745098	0.3935535911242431	0.6677835444887248	0.3618003505981201	0.3664596185974726	0.898110359609011	0.7524111441638319	0.29176487563887077	1.0293398894150838	1.1638285475146601	0.300036234268898	0.9204187829845059	1.2421372213536195	0.35783610870984717	0.9427725370894493	1.2396108537337263	0.2624275390646073	1.0932291323363346	1.2060741341899264	0.17187803974701857	0.7147821635243059	0.3425481010069408	0.13642094785065642	0.9029444539407668	0.7281302428886308	0.10582500805681397	1.0385376325931204	1.157079081538394	0.1167278548367582	0.8469234965846356	1.183968935721465	0.06253889914721256	0.9133477988403388	1.1812659948411808	0.10926377690151365	1.0664508799410395	1.1795485009676154	0.33698315925877037	0.5284542727754082	-0.20706925713335894	0.375728110876781	0.39600302718657815	-0.4343000470584787	0.34236685183402515	0.3808528400958461	-0.2879586623645349	0.4884321791105106	0.539489727147728	-0.10618834443771243	0.5288834857785992	0.5585797762608157	0.17714857431727038	0.4517505529656848	0.5204988286938264	0.425725086615847	0.3629846735189273	0.524405975357928	0.5129096321792147	0.36738754189570555	0.5281970732322658	0.5348114372307167	0.424012456692732	0.5790580479666099	0.5362804062959478	0.1831462463863908	0.5364671531555263	-0.15038466142302145	0.11954500441311641	0.5731035266609296	0.11576219669271601	0.1351226231155244	0.4693972223915758	0.3599582363879689	0.17831592814245606	0.47318307510278207	0.4546771923867859	0.1486806456099548	0.4628678167051609	0.49077835445059614	0.11338339008280386	0.47174090207545255	0.47501566036629517
3	0.058823529411764705	0.3935780057690924	0.6671690335803842	0.3655700590901068	0.36649121843208826	0.8980753681891148	0.7524253587423427	0.2912906871005283	1.0265071459995425	1.1593918647180226	0.3003018772047824	0.9228391262362421	1.2431612342910938	0.36080436106937114	0.958945994149754	1.2433357177513058	0.2622883472008948	1.0927359521484403	1.2037262523273577	0.1719558043934601	0.7147009587439003	0.34245292066264776	0.1363921643459332	0.9029863418928914	0.7281660472445746	0.10585026011194594	1.0384444018913566	1.1570737525524482	0.11675044149568452	0.8470428930143366	1.1839204026686707	0.06273097788061213	0.9134457890433428	1.1854584931957455	0.10951648580160304	1.0674948217733882	1.1795968279126328	0.3370007399800533	0.5284444474012189	-0.20702284561426618	0.372246855916518	0.3852020368038375	-0.4319481829474254	0.342387279877221	0.38080724557602585	-0.2879440052333781	0.4884836258680044	0.5394348207420575	-0.10617833597288054	0.5289068161057154	0.5585194570410542	0.17716122516215954	0.4518327280029701	0.5205838498747186	0.42570824490271897	0.3631456092763345	0.5240134302545463	0.5132221289051881	0.3796281946658356	0.5266345629519307	0.5323862413291958	0.42453173919896137	0.5793237788569764	0.5324097449618841	0.1825850789534096	0.5375350884553727	-0.14703124256996117	0.11953481440615572	0.5730774214949402	0.11588161921598013	0.13046449149456738	0.48149773463966555	0.36015508465309426	0.17357764146381838	0.485983802908927	0.4592015417354984	0.14783640252627328	0.4644122416622812	0.49100520223949223	0.11328414675685003	0.4724072148523252	0.471802441244207
4	0.0784313725490196	0.3937460648028574	0.667732187797853	0.3617003424196289	0.3668496606454349	0.8990339670300658	0.7482824677386035	0.2918250929041986	1.029190450732618	1.1638081717879842	0.2997432810464653	0.920907463431605	1.2360552560664153	0.3597518126148067	0.9192406277258944	1.2323402262328071	0.26206767226610167	1.0919714885076255	1.205507410120471	0.16918929911931094	0.7010843776187939	0.341712092143332	0.13637138558258988	0.9028999461277456	0.7279853648129825	0.1058973749439226	1.0385024680329547	1.1568942001963145	0.11662754231179563	0.8460995115111306	1.1837440057497568	0.06229609517247809	0.9121445672402639	1.1811585362709547	0.11379178234104857	1.0682194820063458	1.1806035399637946	0.33683409283050364	0.5287410466518956	-0.2035837856843285	0.37218943734746046	0.3850059339263798	-0.43196359665976575	0.34238771978378446	0.38074261306150914	-0.2879159569349606	0.4884792854480463	0.5394553656335618	-0.10620289727568977	0.5248561883727701	0.5459853992119651	0.17724278644265928	0.4519228473205675	0.5206202155937267	0.4257941582292897	0.37112879083322975	0.5121204760543024	0.5128651005961646	0.37998621901680024	0.5264913067704414	0.5327639892568317	0.424346340212086	0.5791860225184372	0.536457168258864	0.1833717701108713	0.5365968854146755	-0.1504102333578837	0.11955211299565323	0.572939733344061	0.11586299934538691	0.13038710171790166	0.4814947951181585	0.36000333150552166	0.16888509815299402	0.5003687764072751	0.45555839623519945	0.14248272092380024	0.47685970025757024	0.491706654530532	0.1132591366969447	0.4724866884829648	0.47160323294659295
5	0.09803921568627451	0.393665717808796	0.6671111978710095	0.36558329112508126	0.372008953622474	0.911020087970677	0.7498805976425146	0.2918603610331134	1.0289296592321102	1.1637486206912477	0.2995617335766374	0.9200979779916827	1.2420230488670612	0.35953806204266403	0.9213689514789912	1.233091412301192	0.2616899425512224	1.0919319796839584	1.2051416855062829	0.1691380230955076	0.7011431452523386	0.3419360335488684	0.1376182595001497	0.901474095086923	0.7238968589767603	0.10588131546109257	1.0384780162889424	1.1571361642433584	0.1215894194160755	0.8286601249405159	1.1790446921585862	0.062237828887310345	0.9119439430159277	1.1811559382777645	0.1139586803897752	1.0719289248593415	1.1858199780861673	0.33681442899638214	0.5286600223248875	-0.2035922827958895	0.3722741935682757	0.3849625485664843	-0.43182431977481905	0.3423605287103311	0.38079857647993864	-0.28791017624100085	0.4884741112741486	0.5394429837718844	-0.10616469783808322	0.52488561440931	0.5460878723826216	0.17719403084536067	0.45612704822781064	0.522033005158538	0.4259869811549973	0.37478594681614147	0.525267247247597	0.5218473876563711	0.39531867565015005	0.5128481283045333	0.5326465283549499	0.4312240194417908	0.5512654498148436	0.5343631129025079	0.18335366017901322	0.5364521000138903	-0.15037611221844485	0.11945592983956127	0.5731199796731433	0.11597009013249213	0.13022667637154614	0.48155976943763573	0.3600595141131969	0.17157262174520918	0.5129585175062165	0.45683222980361077	0.1382806206479745	0.4773381645531908	0.4885560999276087	0.11310275498592647	0.4725411173884821	0.4717481635703616
